<svg width="32" height="32" fill="none" viewBox="0 0 32 32" xmlns="http://www.w3.org/2000/svg">
  <path d="M16.926 17.77c-2.192 0-3.985-1.922-3.996-4.36 0-2.355 1.816-4.277 3.996-4.277 2.168 0 3.972 1.898 3.972 4.265 0 2.45-1.793 4.372-3.972 4.372Zm-6.399 9.128c-1.183 0-1.898-.562-1.898-1.523 0-2.496 3.246-5.906 8.297-5.906 5.027 0 8.273 3.41 8.273 5.906 0 .96-.715 1.523-1.898 1.523H10.527Z" fill="#2060DF"/>
  <path opacity=".4" d="M5.969 13.293c-1.078 0-1.7-.61-1.7-1.664V5.664C4.27 4.61 4.892 4 5.97 4h8.87c1.09 0 1.7.61 1.7 1.664v1.582c-3.035.211-5.46 2.836-5.508 6.047H5.97Zm19.664 6.434c-1.078 0-1.7-.61-1.7-1.665v-7.125c0-1.066.622-1.664 1.7-1.664h3.644c1.09 0 1.7.598 1.7 1.665v7.124c0 1.055-.61 1.665-1.7 1.665h-3.644ZM2.699 22.059c-1.078 0-1.699-.61-1.699-1.665v-2.578c0-1.066.621-1.664 1.7-1.664h2.519c1.078 0 1.687.598 1.687 1.664v2.579c0 1.054-.61 1.664-1.687 1.664h-2.52Z" fill="#2060DF"/>
</svg>
