<svg width="32" height="32" fill="none" viewBox="0 0 32 32" xmlns="http://www.w3.org/2000/svg">
  <path d="M6.137 26.906C3.465 26.906 2 25.453 2 22.793V8.613C2 5.953 3.465 4.5 6.137 4.5h19.699c2.684 0 4.137 1.453 4.137 4.113v14.18c0 2.66-1.453 4.113-4.137 4.113h-19.7Zm5.601-11.074c1.617 0 2.953-1.336 2.953-2.965 0-1.617-1.336-2.976-2.953-2.976-1.64 0-2.976 1.359-2.976 2.976a2.978 2.978 0 0 0 2.976 2.965Zm-5.18 8.05h18.868c.879 0 1.523-.573 1.523-1.534v-2.32l-4.64-4.301A2.655 2.655 0 0 0 20.504 15c-.645 0-1.266.223-1.817.715l-5.437 4.851-2.203-1.968c-.504-.457-1.078-.692-1.64-.692-.563 0-1.044.223-1.548.668L5.023 21.06v1.289c0 .96.586 1.535 1.536 1.535Z" fill="#08A64A"/>
</svg>
