<svg width="32" height="32" fill="none" viewBox="0 0 32 32" xmlns="http://www.w3.org/2000/svg">
  <path d="M23.55 26.492c-3.995 1.453-7.84.54-11.214-3.597L8.21 17.832a2.587 2.587 0 0 1-.399-.715c-.316-.855.094-1.71 1.02-2.039.715-.27 1.324-.011 1.828.54l2.953 3.187c.164.187.317.222.457.176.153-.059.246-.235.153-.48L9.77 6.241c-.352-.949.035-1.828.914-2.144.843-.305 1.71.117 2.05 1.066l3.106 8.543c.14.387.387.516.633.422.21-.07.316-.34.175-.715l-.949-2.637c-.176-.48.024-.867.563-1.054 1.16-.422 2.25.047 2.754 1.441l.445 1.219c.14.398.387.516.633.434.222-.082.316-.34.175-.727l-.48-1.324c-.176-.492.012-.867.574-1.067 1.137-.422 2.297.153 2.766 1.43l.223.633c.14.386.386.515.632.433.211-.082.317-.34.176-.726l-.351-.961c-.118-.34.011-.621.351-.738 1.266-.47 2.79.574 3.55 2.648l.845 2.32c2.004 5.508.187 9.856-5.004 11.754ZM7.837 6.442l.726 1.992c-2.753 1.863-4.43 5.097-4.523 9.14a1.023 1.023 0 0 1-.996 1.02C2.48 18.606 2 18.125 2 17.539 2 12.7 4.273 8.656 7.836 6.441Z" fill="#B920DF"/>
</svg>
