<svg viewBox="0 0 142 32" xmlns="http://www.w3.org/2000/svg">
  <path d="M132.676 24.239L132.676 10.535L136.48 10.535L136.48 10.751C136.48 11.722 136.318 13.206 135.94 15.283L136.183 15.283C136.641 12.1 137.343 10.158 139.744 10.158C140.445 10.158 141.092 10.32 141.47 10.616L140.391 14.15C139.959 13.826 139.42 13.664 138.799 13.664C137.424 13.664 136.587 14.582 136.587 17.09L136.587 24.239Z M119.984 14.742C119.984 12.908 119.876 11.424 119.499 10.534L123.437 10.534C123.572 11.101 123.653 11.478 123.653 11.991C123.653 12.531 123.572 13.124 123.41 13.879L123.626 13.879C124.111 11.586 125.217 10.157 127.726 10.157C130.154 10.157 131.691 11.667 131.691 14.014C131.691 16.55 130.019 17.926 127.106 18.33L123.896 18.735L123.896 19.652C123.896 21.135 124.381 21.945 125.73 21.945C126.971 21.945 127.645 21.055 127.753 19.625L131.476 20.137C131.179 23.051 129.156 24.615 125.649 24.615C121.387 24.615 119.984 22.43 119.984 19.275Z M126.108 12.827C124.894 12.827 123.896 13.717 123.896 15.821L123.896 16.415L125.865 16.037C126.998 15.821 127.672 15.309 127.672 14.311C127.672 13.367 127.052 12.827 126.108 12.827Z" fill="black"/>
  <path d="M115.516 24.238L111.173 24.238L106.83 10.535L111.038 10.535L112.765 16.604C113.331 18.627 113.574 20.731 113.601 22.026L113.817 22.026C113.844 20.786 114.033 18.87 114.518 17.116L116.379 10.535L119.832 10.535Z M100.889 24.616C96.815 24.616 94.522 22.054 94.522 17.387C94.522 12.72 96.815 10.157 100.889 10.157C104.989 10.157 107.255 12.72 107.255 17.387C107.255 22.054 104.989 24.617 100.889 24.617Z M100.889 21.892C102.48 21.892 103.209 20.489 103.209 17.387C103.209 14.285 102.48 12.855 100.889 12.855C99.297 12.855 98.569 14.285 98.569 17.387C98.569 20.489 99.297 21.892 100.889 21.892Z M82.077 14.717C82.077 12.883 81.969 11.399 81.591 10.509L85.53 10.509C85.665 11.076 85.745 11.453 85.745 11.966C85.745 12.506 85.665 13.099 85.503 13.854L85.718 13.854C86.204 11.561 87.31 10.132 89.818 10.132C92.246 10.132 93.784 11.642 93.784 13.989C93.784 16.525 92.112 17.901 89.198 18.305L85.988 18.71L85.988 19.627C85.988 21.11 86.474 21.92 87.823 21.92C89.063 21.92 89.738 21.03 89.846 19.6L93.568 20.112C93.272 23.026 91.248 24.59 87.742 24.59C83.479 24.59 82.077 22.405 82.077 19.25Z M88.2 12.802C86.986 12.802 85.988 13.692 85.988 15.796L85.988 16.39L87.958 16.012C89.09 15.796 89.765 15.284 89.765 14.286C89.765 13.342 89.145 12.802 88.2 12.802Z" fill="black"/>
  <path d="M69.44 24.237L69.44 4.923L73.351 4.923L73.351 12.503C73.351 14.715 73.271 15.605 72.974 16.576L72.974 16.657C73.244 17.763 73.351 18.788 73.351 20.704L73.351 24.237Z M77.802 24.237L73.109 16.603L77.775 10.507L81.93 10.507L77.263 16.387L82.361 24.237Z M67.824 20.03C67.824 21.865 67.932 23.348 68.309 24.238L64.371 24.238C64.236 23.672 64.155 23.294 64.155 22.782C64.155 22.242 64.236 21.649 64.398 20.894L64.182 20.894C63.697 23.187 62.591 24.616 60.082 24.616C57.654 24.616 56.117 23.106 56.117 20.759C56.117 18.223 57.789 16.847 60.702 16.443L63.912 16.038L63.912 15.121C63.912 13.637 63.427 12.828 62.078 12.828C60.838 12.828 60.163 13.718 60.055 15.148L56.332 14.635C56.629 11.722 58.652 10.158 62.159 10.158C66.421 10.158 67.824 12.342 67.824 15.498Z M61.7 21.946C62.913 21.946 63.912 21.056 63.912 18.951L63.912 18.358L61.942 18.736C60.809 18.951 60.135 19.464 60.135 20.462C60.135 21.406 60.755 21.946 61.699 21.946Z M44.045 15.618C44.045 14.053 43.694 13.136 42.588 13.136C41.266 13.136 40.835 14.431 40.835 16.535L40.835 24.223L36.923 24.223L36.923 10.52L40.673 10.52L40.673 11.005C40.673 12.138 40.457 13.217 40.16 14.647L40.376 14.647C41.023 11.356 41.941 10.142 44.261 10.142C46.311 10.142 47.525 11.572 47.39 14.566L47.605 14.566C47.902 11.544 49.116 10.142 51.463 10.142C53.918 10.142 55.051 11.76 55.051 14.809L55.051 24.223L51.139 24.223L51.139 15.645C51.139 14.053 50.789 13.136 49.709 13.136C48.334 13.136 47.956 14.566 47.956 16.67L47.956 24.223L44.045 24.223Z" fill="black"/>
  <g transform="translate(1.23 4.261)">
    <path d="M0 0L29.538 0L29.538 23.273L0 23.273Z" fill="transparent"/>
    <path d="M6.923 2.129C3.223 6.797 10.063 9.909 10.063 9.909C10.063 9.909 6.831 8.751 4.906 9.243C0.124 10.465 -0.45 18.838 3.56 21.689C7.813 24.715 14.77 17.095 14.77 11.906L14.77 4.349C14.77 1.189 8.892 -0.357 6.923 2.129Z M14.77 4.351L14.77 11.91C14.77 17.1 21.727 24.719 25.981 21.693C29.994 18.84 29.416 10.469 24.636 9.245C22.712 8.752 19.481 9.911 19.481 9.911C19.481 9.911 26.319 6.799 22.621 2.131C20.651 -0.353 14.772 1.191 14.772 4.351Z" fill="black" stroke="black" stroke-width="1.79" stroke-linejoin="round"/>
    <path d="M14.77 12.086L14.77 21.037" fill="transparent" stroke="black" stroke-width="1.79" stroke-linecap="round" stroke-linejoin="round"/>
    <path d="M15.291 1.489C15.291 1.489 15.041 1.679 15.014 1.861C14.987 2.042 14.805 1.568 14.805 1.568L15.168 1.318L15.288 1.492L15.291 1.49Z" fill="white"/>
    <path d="M14.77 1.041L14.186 1.041C14.526 2.388 14.674 3.739 14.692 4.599L14.849 4.599C14.867 3.739 15.014 2.39 15.355 1.041Z" fill="white"/>
    <path d="M13.986 1.293C14.11 1.393 14.302 1.499 14.369 1.854C14.436 2.21 14.769 1.04 14.769 1.04L14.04 0.982C14.04 0.982 13.926 1.242 13.987 1.291L13.987 1.293ZM15.553 1.293C15.43 1.393 15.238 1.499 15.171 1.854C15.103 2.21 14.77 1.04 14.77 1.04L15.5 0.982C15.5 0.982 15.614 1.242 15.553 1.291Z" fill="white"/>
  </g>
</svg>
