<svg width="24" height="29" fill="none" viewBox="0 0 24 29" xmlns="http://www.w3.org/2000/svg">
  <path d="M11.836 11.773C4.219 11.773.14 9.77.14 6.172C.14 3.758 2.203 1.426 6.42.3c.87-.222 1.456.036 1.667.68.2.632-.094 1.265-.867 1.488-3.164.949-4.535 2.203-4.535 3.656 0 2.156 3.058 3.305 9.035 3.305 5.355 0 9.597-1.102 9.597-2.25 0-.938-2.52-1.676-6.093-1.676-3.317 0-5.696.691-7.641 1.394-.75.258-1.43.047-1.7-.55a1.19 1.19 0 0 1 .68-1.594c2.297-.95 5.215-1.524 8.79-1.524 5.203 0 8.507 1.489 8.507 3.961 0 2.73-4.476 4.582-12.023 4.582Zm.34 4.184c-2.742 0-5.906-.363-8.461-1.113-.715-.2-1.055-.774-.88-1.371.165-.586.74-.809 1.43-.61 2.356.703 5.31 1.02 7.91 1.02 3.434 0 6.716-.563 8.977-1.371.692-.235 1.278-.106 1.535.433.27.551.024 1.196-.62 1.43-2.485.96-6.047 1.582-9.891 1.582Zm.89 4.125c-1.582.012-2.882-.094-3.855-.234-.774-.117-1.09-.692-.973-1.278.094-.539.563-.879 1.301-.773.961.129 2.25.21 3.457.21 2.918 0 5.59-.421 8.297-1.241.738-.223 1.266 0 1.465.527.223.55-.012 1.195-.762 1.43-2.789.879-5.742 1.324-8.93 1.359Zm-1.218 3.914c-.774-.082-1.055-.644-.996-1.172.07-.562.562-.937 1.3-.867 2.121.2 4.477.047 6.364-.398.703-.153 1.265.082 1.441.68.152.562-.129 1.16-.82 1.335-2.18.563-5.063.668-7.29.422Zm-.809 4.02c-.68-.082-1.055-.528-.996-1.114.059-.55.516-.949 1.207-.867.645.082 1.406.07 2.121-.012.715-.082 1.16.305 1.219.868.047.609-.328 1.043-.985 1.113-.878.094-1.757.105-2.566.012Z" fill="#2060DF"/>
</svg>
