<svg width="34" height="31" fill="none" viewBox="0 0 34 31" xmlns="http://www.w3.org/2000/svg">
  <path d="M1.678 12.597h2.065C5.091 5.74 11.213.482 18.421.482c8.16 0 14.941 6.768 14.941 14.942 0 8.159-6.782 14.941-14.941 14.941-4.937 0-9.302-2.52-12.085-6.255-.498-.644-.337-1.45.249-1.816.615-.366 1.304-.176 1.758.425 2.241 3.12 5.903 5.141 10.078 5.156 6.914.03 12.451-5.537 12.451-12.451A12.391 12.391 0 0 0 18.421 2.987c-5.947 0-10.87 4.073-12.144 9.61h2.124c1.04 0 1.304.718.747 1.523l-3.28 4.673c-.47.66-1.173.674-1.656 0L.93 14.135c-.572-.82-.308-1.538.747-1.538Zm15.864 11.528v-1.48c-2.388-.248-4.116-1.567-4.424-3.178-.16-.88.235-1.48.982-1.48.41 0 .805.235 1.025.733.44 1.142 1.216 1.787 2.417 1.977V16.26l-.38-.088c-2.681-.63-3.97-1.86-3.97-3.867 0-2.183 1.787-3.809 4.35-4.073V6.737c0-.483.395-.893.879-.893.483 0 .893.41.893.893v1.538c2.198.352 3.59 1.773 3.94 3.12.265.88-.175 1.553-.937 1.553-.41 0-.805-.234-1.04-.747-.395-1.055-1.01-1.699-1.963-1.948v4.292l.557.146c2.798.674 3.926 1.773 3.926 3.824 0 2.197-1.831 3.823-4.483 4.13v1.48c0 .483-.41.894-.893.894a.894.894 0 0 1-.879-.894Zm-2.095-11.91c0 .924.63 1.495 2.095 1.89v-3.91c-1.274.22-2.095.98-2.095 2.02Zm6.065 6.46c0-1.069-.616-1.625-2.198-1.991v4.013c1.363-.234 2.198-.981 2.198-2.021Z" fill="#08A64A"/>
</svg>
