<svg width="22" height="29" fill="none" viewBox="0 0 22 29" xmlns="http://www.w3.org/2000/svg">
  <path d="m12.1 21.641-3.526 6.446c-.37.674-1.145.809-1.718.506-.618-.315-.831-1.1-.494-1.718l3.481-6.38.113-.213 2.774-5.098H7.473c-.977 0-1.606-.989-1.09-1.898l3.965-6.75c.078-.146.067-.28-.045-.393A23.271 23.271 0 0 0 7.08 3.425H2.16a1.268 1.268 0 0 1-1.257-1.28c0-.696.561-1.258 1.258-1.258h5.03c.416 0 .776.124 1.169.37 7.794 5.178 10.736 13.972 11.78 18.677l.046.202c.92 4.122.898 7.21.898 7.323 0 .718-.54 1.291-1.247 1.291-.696 0-1.257-.573-1.257-1.314 0-.416-.09-3.088-.843-6.592l-2.167-3.976-3.47 4.773ZM5.53 9.815a2.576 2.576 0 0 1-2.582-2.583 2.564 2.564 0 0 1 2.583-2.56 2.56 2.56 0 0 1 2.56 2.56 2.57 2.57 0 0 1-2.56 2.583Zm4.066 2.898h2.269l-.977-1.46c-.113-.146-.326-.202-.46.022l-.832 1.438Z" fill="#B920DF"/>
</svg>
